<svg xmlns="http://www.w3.org/2000/svg" width="540" height="960" viewBox="0 0 540 960">
<rect width="540" height="960" fill="#e6e9df"/><g fill="#25342e" font-family="sans-serif">
<text x="38" y="62" font-size="17" letter-spacing="2">ESQUEMA DO FORMATO · F06</text>
<text x="38" y="166" font-size="36" font-weight="700">Diagramas</text>
<rect x="38" y="230" width="464" height="202" rx="10" fill="#f5f5ef"/>
<text x="65" y="280" font-size="17" letter-spacing="2">01. IDEIA</text>
<circle cx="150" cy="318" r="6" fill="#536851"/><circle cx="175" cy="318" r="6" fill="#536851"/><circle cx="200" cy="318" r="6" fill="#536851"/><circle cx="225" cy="318" r="6" fill="#536851"/><circle cx="250" cy="318" r="6" fill="#536851"/><circle cx="275" cy="318" r="6" fill="#536851"/><circle cx="300" cy="318" r="6" fill="#536851"/><circle cx="325" cy="318" r="6" fill="#536851"/><circle cx="350" cy="318" r="6" fill="#536851"/><circle cx="375" cy="318" r="6" fill="#536851"/><circle cx="150" cy="338" r="6" fill="#536851"/><circle cx="175" cy="338" r="6" fill="#536851"/><circle cx="200" cy="338" r="6" fill="#536851"/><circle cx="225" cy="338" r="6" fill="#536851"/><circle cx="250" cy="338" r="6" fill="#536851"/><circle cx="275" cy="338" r="6" fill="#536851"/><circle cx="300" cy="338" r="6" fill="#536851"/><circle cx="325" cy="338" r="6" fill="#536851"/><circle cx="350" cy="338" r="6" fill="#536851"/><circle cx="375" cy="338" r="6" fill="#536851"/><circle cx="150" cy="358" r="6" fill="#536851"/><circle cx="175" cy="358" r="6" fill="#536851"/><circle cx="200" cy="358" r="6" fill="#536851"/><circle cx="225" cy="358" r="6" fill="#536851"/><circle cx="250" cy="358" r="6" fill="#536851"/><circle cx="275" cy="358" r="6" fill="#536851"/><circle cx="300" cy="358" r="6" fill="#536851"/><circle cx="325" cy="358" r="6" fill="#536851"/><circle cx="350" cy="358" r="6" fill="#536851"/><circle cx="375" cy="358" r="6" fill="#536851"/><circle cx="150" cy="378" r="6" fill="#536851"/><circle cx="175" cy="378" r="6" fill="#536851"/><circle cx="200" cy="378" r="6" fill="#536851"/><circle cx="225" cy="378" r="6" fill="#536851"/><circle cx="250" cy="378" r="6" fill="#536851"/><circle cx="275" cy="378" r="6" fill="#536851"/><circle cx="300" cy="378" r="6" fill="#536851"/><circle cx="325" cy="378" r="6" fill="#536851"/><circle cx="350" cy="378" r="6" fill="#536851"/><circle cx="375" cy="378" r="6" fill="#536851"/>
<path d="M270 455v70m-13-13 13 13 13-13" fill="none" stroke="#536851" stroke-width="3"/>
<rect x="38" y="550" width="464" height="250" rx="10" fill="#25342e"/>
<g fill="#edf0e5"><text x="65" y="600" font-size="17" letter-spacing="2">02. DIAGRAMA</text>
<rect x="80" y="645" width="105" height="50" rx="6" fill="#9cb890"/><rect x="355" y="645" width="105" height="50" rx="6" fill="#9cb890"/>
<path d="M196 670h143m-12-10 12 10-12 10" fill="none" stroke="#edf0e5" stroke-width="3"/>
<text x="65" y="757" font-size="19">Etapas. Conexões. Clareza.</text></g>
<text x="38" y="895" font-size="17">Guia ilustrativo. Não é uma execução em vídeo.</text></g></svg>