<svg xmlns="http://www.w3.org/2000/svg" width="1440" height="900" viewBox="0 0 1440 900" role="img" aria-labelledby="title desc">
  <title id="title">Bruno Guzela — proposta de identidade visual</title>
  <desc id="desc">Prancha com monograma IA azul, paleta carvão e uma aplicação para capa vertical.</desc>
  <defs>
    <linearGradient id="coverShade" x2="0" y2="1"><stop stop-color="#182433"/><stop offset="1" stop-color="#080B10"/></linearGradient>
    <pattern id="grid" width="24" height="24" patternUnits="userSpaceOnUse"><path d="M24 0H0V24" fill="none" stroke="#1C2632" stroke-width="1"/></pattern>
  </defs>
  <rect width="1440" height="900" fill="#0C1118"/>
  <rect width="1440" height="900" fill="url(#grid)" opacity=".28"/>
  <path d="M72 112H820" stroke="#263544" stroke-width="2"/>
  <text x="72" y="82" fill="#9AA8B8" font-family="Inter,Arial,sans-serif" font-size="18" font-weight="700" letter-spacing="5">BRUNO GUZELA · IDENTIDADE VISUAL · PROPOSTA V1</text>

  <g transform="translate(86 202) scale(.66)" fill="#4A92E6">
    <path d="M14 12h126v34H96v108h44v34H14v-34h44V46H14z"/>
    <path fill-rule="evenodd" d="M174 188 220 28c3-10 12-16 23-16h93c11 0 20 6 23 16l46 160h-43l-14-50H231l-14 50zm68-86h116l-22-76h-72z"/>
  </g>
  <text x="72" y="452" fill="#F2F6FC" font-family="Inter,Arial,sans-serif" font-size="58" font-weight="800" letter-spacing="2">BRUNO GUZELA</text>
  <rect x="72" y="488" width="90" height="6" rx="3" fill="#4A92E6"/>
  <text x="72" y="548" fill="#9AA8B8" font-family="Inter,Arial,sans-serif" font-size="22" font-weight="500">IA em movimento. Clareza em cada ideia.</text>

  <text x="72" y="650" fill="#9AA8B8" font-family="Inter,Arial,sans-serif" font-size="15" font-weight="700" letter-spacing="4">PALETA</text>
  <g font-family="Inter,Arial,sans-serif" font-size="14" font-weight="600">
    <rect x="72" y="676" width="116" height="78" rx="10" fill="#0C1118" stroke="#354352"/><text x="72" y="784" fill="#F2F6FC">CARVÃO</text><text x="72" y="808" fill="#9AA8B8">#0C1118</text>
    <rect x="214" y="676" width="116" height="78" rx="10" fill="#4A92E6"/><text x="214" y="784" fill="#F2F6FC">AZUL</text><text x="214" y="808" fill="#9AA8B8">#4A92E6</text>
    <rect x="356" y="676" width="116" height="78" rx="10" fill="#76C8FF"/><text x="356" y="784" fill="#F2F6FC">AZUL CLARO</text><text x="356" y="808" fill="#9AA8B8">#76C8FF</text>
    <rect x="498" y="676" width="116" height="78" rx="10" fill="#F2F6FC"/><text x="498" y="784" fill="#F2F6FC">BRANCO FRIO</text><text x="498" y="808" fill="#9AA8B8">#F2F6FC</text>
    <rect x="640" y="676" width="116" height="78" rx="10" fill="#9AA8B8"/><text x="640" y="784" fill="#F2F6FC">CINZA</text><text x="640" y="808" fill="#9AA8B8">#9AA8B8</text>
  </g>

  <text x="874" y="142" fill="#9AA8B8" font-family="Inter,Arial,sans-serif" font-size="15" font-weight="700" letter-spacing="4">APLICAÇÃO · CAPA 9:16</text>
  <rect x="930" y="174" width="346" height="650" rx="18" fill="url(#coverShade)" stroke="#344354" stroke-width="2"/>
  <path d="M949 196h308v270H949z" fill="#14202D"/>
  <circle cx="1103" cy="316" r="78" fill="#1E334A"/>
  <circle cx="1103" cy="290" r="31" fill="#7591AD"/>
  <path d="M1045 390c10-38 36-57 58-57s48 19 58 57" fill="#7591AD"/>
  <path d="M949 432h308v392H949z" fill="#0C1118" opacity=".93"/>
  <g transform="translate(972 210) scale(.16)" fill="#4A92E6"><path d="M14 12h126v34H96v108h44v34H14v-34h44V46H14z"/><path fill-rule="evenodd" d="M174 188 220 28c3-10 12-16 23-16h93c11 0 20 6 23 16l46 160h-43l-14-50H231l-14 50zm68-86h116l-22-76h-72z"/></g>
  <text x="1000" y="253" fill="#F2F6FC" font-family="Inter,Arial,sans-serif" font-size="13" font-weight="800" letter-spacing="2">BRUNO GUZELA</text>
  <rect x="979" y="485" width="154" height="34" rx="6" fill="#4A92E6"/>
  <text x="996" y="508" fill="#0C1118" font-family="Inter,Arial,sans-serif" font-size="12" font-weight="800" letter-spacing="2">IDEIA-CHAVE</text>
  <text x="978" y="572" fill="#F2F6FC" font-family="Inter,Arial,sans-serif" font-size="42" font-weight="800">O FUTURO</text>
  <text x="978" y="619" fill="#4A92E6" font-family="Inter,Arial,sans-serif" font-size="42" font-weight="800">DA IA</text>
  <path d="M979 660h92" stroke="#4A92E6" stroke-width="4"/>
  <text x="979" y="690" fill="#9AA8B8" font-family="Inter,Arial,sans-serif" font-size="12" font-weight="700" letter-spacing="2">TECNOLOGIA · IDEIAS · NEGÓCIOS</text>
  <text x="874" y="866" fill="#9AA8B8" font-family="Inter,Arial,sans-serif" font-size="14">Geometria · contraste · leitura confortável</text>
</svg>
